# xmcd CD database file
#
# Track frame offsets:
#	150
#	45364
#	74618
#	107072
#	144202
#	169410
#	208748
#	227954
#	256046
#
# Disc length: 3848 seconds
#
# Revision: 1
# Processed by: cddbd v1.5.2PL0 Copyright (c) Steve Scherf et al.
# Submitted via: CDex 1.50
#
DISCID=7d0f0609
DTITLE=Don Peake - It's About Time
DYEAR=2009
DGENRE=Jazz
TTITLE0=Just friends
TTITLE1=Soho Blue
TTITLE2=Girl With The Flaxen Hair
TTITLE3=Honeysuckle Rhythm\
TTITLE4=Lookin' For Trouble
TTITLE5=Lover Man
TTITLE6=Natasha
TTITLE7=Sweet Dick Willie
TTITLE8=Battle Hymn Of The Republic
EXTD=YEAR: 2009
EXTT0=
EXTT1=
EXTT2=
EXTT3=
EXTT4=
EXTT5=
EXTT6=
EXTT7=
EXTT8=
PLAYORDER=
